<?xml version="1.0" standalone="no"?>
<!DOCTYPE svg PUBLIC "-//W3C//DTD SVG 20010904//EN"
 "http://www.w3.org/TR/2001/REC-SVG-20010904/DTD/svg10.dtd">
<svg version="1.0" xmlns="http://www.w3.org/2000/svg"
 width="56.000000pt" height="56.000000pt" viewBox="0 0 56.000000 56.000000"
 preserveAspectRatio="xMidYMid meet">

<g transform="translate(0.000000,56.000000) scale(0.100000,-0.100000)"
fill="#000000" stroke="none">
<path d="M155 495 c-14 -13 -25 -33 -25 -44 0 -14 -9 -23 -25 -27 -53 -13 -80
-79 -53 -127 7 -12 13 -44 13 -70 0 -41 5 -53 30 -76 17 -14 35 -40 40 -56 13
-38 50 -57 95 -50 34 6 43 6 124 3 29 -2 43 4 57 21 11 13 19 30 19 37 0 8 15
27 32 43 28 25 33 36 33 78 0 26 6 58 13 70 26 47 0 114 -51 127 -15 3 -26 17
-32 38 -14 45 -55 65 -109 50 -25 -6 -48 -7 -63 -1 -41 15 -73 10 -98 -16z
m95 -10 c27 -14 33 -14 61 1 40 20 76 11 92 -23 10 -23 9 -28 -11 -41 -32 -21
-30 -69 3 -84 34 -15 43 -3 14 21 -20 16 -22 21 -9 35 17 22 58 14 83 -16 22
-27 22 -49 -3 -81 -16 -20 -18 -31 -10 -51 12 -33 -1 -70 -33 -91 -14 -9 -27
-29 -31 -45 -8 -44 -46 -59 -91 -37 -33 16 -37 16 -71 0 -32 -16 -38 -16 -62
-2 -39 21 -39 43 0 54 26 8 34 16 36 38 4 33 -13 57 -39 57 -25 0 -24 -16 1
-23 25 -7 26 -33 1 -47 -26 -13 -65 2 -87 34 -13 21 -14 32 -5 57 9 26 8 35
-9 56 -27 34 -25 59 5 88 29 30 60 32 77 5 16 -25 28 -26 28 0 0 10 -9 24 -20
30 -11 6 -20 17 -20 25 0 20 36 55 55 55 9 0 29 -7 45 -15z"/>
<path d="M277 336 c-12 -32 -19 -106 -9 -106 13 0 19 16 27 74 5 29 4 46 -3
46 -5 0 -12 -6 -15 -14z"/>
<path d="M190 315 l-24 -26 27 -26 c30 -30 50 -24 22 7 -17 19 -17 21 -2 38
35 38 12 45 -23 7z"/>
<path d="M330 333 c0 -3 7 -15 17 -25 15 -17 15 -19 -2 -38 -28 -31 -8 -37 22
-7 l27 26 -24 26 c-23 24 -40 32 -40 18z"/>
</g>
</svg>
