<?xml version="1.0" encoding="UTF-8"?>
<!DOCTYPE svg PUBLIC "-//W3C//DTD SVG 1.1//EN" "http://www.w3.org/Graphics/SVG/1.1/DTD/svg11.dtd">
<svg xmlns="http://www.w3.org/2000/svg" version="1.1" width="56px" height="56px" style="shape-rendering:geometricPrecision; text-rendering:geometricPrecision; image-rendering:optimizeQuality; fill-rule:evenodd; clip-rule:evenodd" xmlns:xlink="http://www.w3.org/1999/xlink">
<g><path style="opacity:0.779" fill="#150e11" d="M 28.5,50.5 C 28.2648,49.9033 27.7648,49.5699 27,49.5C 24.9534,50.6094 22.7867,51.2761 20.5,51.5C 18.3453,51.628 16.3453,51.128 14.5,50C 12.6397,45.1256 9.80638,40.9589 6,37.5C 5.26696,30.7622 4.60029,24.0955 4,17.5C 5.41025,14.2108 7.91025,12.5441 11.5,12.5C 11.7697,8.78706 13.4364,5.95373 16.5,4C 23.8333,4.66667 31.1667,4.66667 38.5,4C 41.1634,5.80056 42.9967,8.30056 44,11.5C 50.5768,13.9869 52.9102,18.6536 51,25.5C 50,30.1667 49,34.8333 48,39.5C 44.4249,42.2077 41.9249,45.7077 40.5,50C 36.5397,51.7566 32.5397,51.9232 28.5,50.5 Z"/></g>
<g><path style="opacity:0.997" fill="#f89cc1" d="M 18.5,5.5 C 21.9717,5.12617 24.9717,6.12617 27.5,8.5C 32.8073,4.0322 37.1407,4.69887 40.5,10.5C 39.7917,12.4523 38.625,14.119 37,15.5C 36.065,20.3937 37.8984,22.3937 42.5,21.5C 38.7269,20.5506 37.7269,18.3839 39.5,15C 46.1772,14.0135 49.3438,16.8468 49,23.5C 48.028,25.3049 46.8613,26.9716 45.5,28.5C 48.6407,34.2531 47.1407,38.5865 41,41.5C 39.1637,49.9126 34.6637,51.5792 27.5,46.5C 22.2427,50.9788 17.9093,50.3121 14.5,44.5C 19.6648,43.5203 21.8315,40.5203 21,35.5C 19.308,33.7554 17.4747,33.4221 15.5,34.5C 19.1794,35.2583 20.1794,37.2583 18.5,40.5C 13.4676,42.3411 9.96755,40.6744 8,35.5C 7.161,32.8604 7.661,30.5271 9.5,28.5C 3.73803,21.9889 5.07137,17.3223 13.5,14.5C 15.6632,14.9224 16.9966,16.2557 17.5,18.5C 18.5827,17.635 18.7494,16.635 18,15.5C 13.2462,11.8683 13.4129,8.53494 18.5,5.5 Z"/></g>
<g><path style="opacity:1" fill="#1f1519" d="M 20.5,21.5 C 21.3764,21.3691 22.0431,21.7025 22.5,22.5C 21.5,23.8333 20.5,25.1667 19.5,26.5C 20.5,27.8333 21.5,29.1667 22.5,30.5C 19.9208,30.6764 17.9208,29.3431 16.5,26.5C 17.8569,24.8144 19.1902,23.1477 20.5,21.5 Z"/></g>
<g><path style="opacity:1" fill="#24191d" d="M 27.5,20.5 C 28.5862,20.62 29.2528,21.2867 29.5,22.5C 29.0006,26.0085 28.0006,29.3418 26.5,32.5C 26.1667,32 25.8333,31.5 25.5,31C 26.4894,27.5532 27.1561,24.0532 27.5,20.5 Z"/></g>
<g><path style="opacity:1" fill="#201519" d="M 32.5,21.5 C 39.8661,24.2119 40.1994,27.5452 33.5,31.5C 33.1667,31.1667 32.8333,30.8333 32.5,30.5C 33.5,29.1667 34.5,27.8333 35.5,26.5C 34.0476,25.0603 33.0476,23.3936 32.5,21.5 Z"/></g>
<g><path style="opacity:0.21" fill="#f097b9" d="M 28.5,50.5 C 26.516,51.1557 24.516,51.8224 22.5,52.5C 21.5836,52.4573 20.9169,52.1239 20.5,51.5C 22.7867,51.2761 24.9534,50.6094 27,49.5C 27.7648,49.5699 28.2648,49.9033 28.5,50.5 Z"/></g>
</svg>
